<?xml version="1.0" encoding="utf-8"?>
<!-- Generator: Adobe Illustrator 25.0.1, SVG Export Plug-In . SVG Version: 6.00 Build 0)  -->
<svg version="1.1" id="katman_1" xmlns="http://www.w3.org/2000/svg" xmlns:xlink="http://www.w3.org/1999/xlink" x="0px" y="0px"
	 viewBox="0 0 2912.1 860.8" style="enable-background:new 0 0 2912.1 860.8;" xml:space="preserve">
<style type="text/css">
	.st0{fill:#E8341D;}
</style>
<path class="st0" d="M713.6,505l61.7-61.6l-30.9,91.8l-30.9,30.2L713.6,505z M827.4,264.3L801.8,351l-154,150.4v-57.9L827.4,264.3z
	 M881.8,79.9l-25.6,86.8L581.9,437.1v-57.6L881.8,79.9z M315.1,443.6l337.4,336.8h-57.6l-48.3-47.9l-48.4,47.9h-60.6l78.2-78.1
	L481.1,668l-62.8,62l-15.9-41.1l49.8-49.4l-36.5-36.1l-33.5,33.1l-15.9-41.5l20.2-20.2l-39.6-38.9L315.1,443.6z M207.6,79.9
	l516.7,515.6l-15.9,41.1l-32.8-32.4L649,630.5v-52.4L610.4,540l-28.2,27v-54.8l-37.8-37.4l-29.3,28.9v-57.6l-282-279.4L207.6,79.9z
	 M263.2,267l423.4,423.8l-15.9,41.1l-61-61.6l-27,26.3v-52.9l-38.5-38.1l-28.9,28.1v-56.3l-37-36.5l-28.9,28.5v-57.2L288.8,353.8
	L263.2,267z M1203.1,192.6v135.8h-48V192.6H1048v-35h262.9v35L1203.1,192.6z M1544.5,261.3h-152.1V329h-48V158h48v67.3h151.7v-67.7
	h48v171h-48L1544.5,261.3z M1634.9,157.7h223.8v35h-175.6v33.5h164.7V260h-164.7v33.9h175.6v35h-223.8V157.7z M1190.5,556.6
	c-89.8,0-142.8-32.8-142.8-89s52.6-89,139.9-89c41.5,0,75.8,7.2,108.9,23.1v38.5l-1.5,0.4c-32-16.3-66.3-26.3-102.8-26.3
	c-62.8,0-96.3,20.2-96.3,54c0,33.5,32.8,53.7,96.3,53.7c19.1,0,38.2-2.6,56-8v-31.3h-108.9v-29.2h157.5v80.3
	C1260.7,550.5,1228.6,556.6,1190.5,556.6L1190.5,556.6z M1518.2,519.3h-129.1l-22.8,34.2h-51.5l116.5-171h49.5l110.6,171h-51.9
	L1518.2,519.3z M1455.4,418.8l-43.5,65.5h84.7L1455.4,418.8z M1663.5,442.8v110.9H1617v-171h55.2l87.3,130.7l87.2-130.7h55.2v171
	h-46.5V442.8L1782,553.5h-45L1663.5,442.8z M1944,382.7h223.8v35h-175.6v33.5h165.1V485h-164.7v33.9h175.7v35h-223.8V382.5h-0.4
	V382.7z M1251.4,743.5h-129.1l-22.8,34.2H1048l116.5-171h49.5l110.6,171h-51.9L1251.4,743.5z M1188.6,643.4l-43.5,65.5h84.7
	L1188.6,643.4z M1289.2,608.1l0.7-0.7h49.5l49.8,119.9l49.8-119.9h45.8l49.8,119.9l50.4-119.9h49.1l0.7,0.7l-75.8,169.7h-46.5
	l-50.8-120.7l-50.4,120.7h-46.9L1289.2,608.1z M1800.8,743.5h-129.1l-23,34.2h-51.9l116.5-171h49.5l110.6,171h-51.9L1800.8,743.5z
	 M1737.8,643.4l-43.9,65.5h84.7L1737.8,643.4z M2018.3,722.3h-73.5v55.5h-48v-171h140.6c61.3,0,95.6,20.2,95.6,57.9
	c0,29.6-21.3,48.3-60.2,54.8l66,57.2l-0.7,0.7h-58.4L2018.3,722.3z M1944.7,686.9h91.5c32,0,48.7-4.6,48.7-22
	c0-17.6-16.3-22.4-48.7-22.4l-91.5,0.2L1944.7,686.9z M2297.6,607.3c82.6,0,132.3,31.7,132.3,85.3c0,53.7-49.8,85.3-130.4,85.3H2168
	V607.3L2297.6,607.3z M2216.1,742.4h79.3c56.3,0,85.4-14.8,85.4-49.8c0-35-29.3-49.8-85.4-49.8h-79.3V742.4z M2458.1,766.3v-38.1
	l1.5-0.7c34.3,12.2,70.6,17.6,120.4,17.6c53.7,0,76.5-8,76.5-19.8c0-34.2-199.7,11.1-199.7-70.1c0-35,41.1-53.7,120.4-53.7
	c39.6,0,75.8,4.6,108.9,13.7v35.7l-1.5,0.4c-35-9.8-70.6-14.8-106.7-14.8c-51.5,0-73.2,5.7-73.2,16.3c0,34.2,199.7-9.4,199.7,70.5
	c0,39.2-37.4,56.3-127.3,56.3C2531.3,780.9,2489.4,775.6,2458.1,766.3L2458.1,766.3z"/>
</svg>
